<?xml version="1.0" encoding="UTF-8"?>
<svg xmlns="http://www.w3.org/2000/svg" version="1.1" viewBox="0 0 40 40">
  <defs>
    <style>
      .cls-1 {
        fill: #3b82f6;
      }
    </style>
  </defs>
  <!-- Generator: Adobe Illustrator 28.6.0, SVG Export Plug-In . SVG Version: 1.2.0 Build 709)  -->
  <g>
    <g id="Layer_1">
      <path class="cls-1" d="M17.8.5c-1.8.9-2.7,2.4-2.7,4.6s1.3,4.1,3.5,4.9c1.3.4,1.8.4,3.2-.1,2.2-.8,3.3-2.4,3.3-4.8,0-2.2-1.1-3.9-3-4.7-1.2-.5-3.2-.4-4.3.1ZM21.3,2.8v1.1c0,0,1.1.1,1.1.1h1v2.1h-1c0,.1-1,.2-1,.2v1c0,0-.1,1.1-.1,1.1h-2.2v-1.1c0,0-.1-1-.1-1h-1.1c0-.1-1.1-.2-1.1-.2v-2h1.1c0-.1,1.1-.2,1.1-.2v-1.1c0,0,.1-1,.1-1h2.2v1Z"/>
      <g>
        <path class="cls-1" d="M26.1,2.1c0,0,.2.5.3,1,.2.5.3,1.4.3,2.1v1.2l1.1.6c3.5,2,6,4.9,7.4,8.7.5,1.2.5,1.8.5,4.8,0,3.1,0,3.5-.6,4.8-1.6,4-4,6.9-7.3,8.5-1.7.8-2,1.1-2.4,1.9-.9,1.8-3.1,3.1-5.3,3.1s-4.5-1.3-5.5-3.3c-.4-.7-.7-1-2.1-1.7-2.2-1-5.1-3.8-6.3-6-1.4-2.5-1.8-4.3-1.8-7.6,0-3.1.3-4.3,1.6-6.9,1.4-2.7,3-4.5,6-6.3l1.5-.9v-1.1c-.1-.6,0-1.5.2-2,.2-.5.3-1,.2-1.1,0,0-.8.2-1.6.6C7.8,4.9,3.9,8.8,2.2,12.9c-1.2,2.9-1.4,3.7-1.5,6.9,0,2.8,0,3.3.5,5.3,2.3,8.7,9.9,14.7,19,14.7s5-.4,7.1-1.2c1.7-.7,4.6-2.5,5.9-3.7,2.4-2.2,4.7-5.8,5.5-8.5.2-.6.4-1.6.6-2,.1-.5.2-2.4.2-4.2,0-3.1,0-3.4-.7-5.4-1-2.8-2-4.7-3.7-6.6-1.7-1.9-2.8-3-4.9-4.2-1.7-1.1-4.1-2.2-4.1-1.9Z"/>
        <path class="cls-1" d="M12.2,8.8c-3.7,2.5-5.9,5.8-6.4,9.9-.3,2.2,0,4.8.7,6.6,1.2,3.2,3.9,6,7,7.5,1.4.7,1.9,1.1,2.1,1.5.6,1.4,3.2,3.3,4.7,3.3s4.3-2.2,4.6-3.4c0-.4.7-.8,2.2-1.5,2.9-1.4,4.7-3.2,6.1-6,1.2-2.5,1.6-4.3,1.4-7.1-.2-3.5-1.6-6.4-4.1-8.9-.8-.8-2-1.8-2.7-2.2-1.2-.7-1.3-.7-1.6-.3-.2.2-.3.5-.3.5s.6.5,1.4,1c1.7,1.1,3.6,3.1,4.5,4.7,3.5,6,1,14.1-5.2,17.1l-1.4.7-.9-.8c-1.2-1.1-2-1.2-3.3-.6-.9.4-1,.4-1.6,0-.3-.2-1-.4-1.6-.4-.9,0-1.1,0-1.8.8l-.8.9-.9-.4c-3.5-1.4-6.3-4.8-7.2-8.6-.6-2.9-.2-5.6,1.1-8.3.9-1.8,3.5-4.5,5.2-5.4,1.1-.5,1.1-.6.9-1.1-.1-.3-.4-.5-.5-.5s-.9.4-1.7.9ZM19.2,32.4c.2.2.5.4.6.6,0,.1.4,0,.8-.3,1.4-1.1,2.3-1.1,2.9,0,.3.6.3.7,0,1.3-.4.7-2.1,2.1-2.9,2.3-.7.2-2.3-.7-3.2-1.6-1.6-1.8,0-3.7,1.9-2.3Z"/>
      </g>
      <path class="cls-1" d="M13.6,14.7c-.9.9-1,1.9-.4,3,.9,1.8,3.6,1.6,4.5-.3.6-1.5-.4-3.1-2.2-3.3-.9-.1-1.1,0-1.8.7Z"/>
      <path class="cls-1" d="M23.4,14.4c-.8.5-1.2,1.4-1,2.5.2,1.1.6,1.7,1.7,2,1.1.4,2.3-.3,2.9-1.4.4-.7.4-.9,0-1.6-.6-1.5-2.4-2.2-3.7-1.4Z"/>
      <path class="cls-1" d="M13,22.6c-.4.3-.4.3,0,1.2.6,1.1,1.9,2.3,3.4,3.1,1.1.6,1.4.6,3.6.6s2.5,0,3.7-.6c1.4-.7,2.7-1.9,3.4-3.1.4-.8.4-.8,0-1.1-.2-.2-.5-.3-.6-.3,0,0-.4.5-.8,1-.8,1.2-2.4,2.4-3.7,2.7-1.4.4-3.8.2-5.1-.5-1.2-.6-3-2.3-3-2.9s-.4-.4-1,0Z"/>
    </g>
  </g>
</svg>